<?xml version="1.0" encoding="UTF-8" standalone="no"?>
<!-- Created with Inkscape (http://www.inkscape.org/) -->

<svg
   xmlns:dc="http://purl.org/dc/elements/1.1/"
   xmlns:cc="http://creativecommons.org/ns#"
   xmlns:rdf="http://www.w3.org/1999/02/22-rdf-syntax-ns#"
   xmlns:svg="http://www.w3.org/2000/svg"
   xmlns="http://www.w3.org/2000/svg"
   xmlns:sodipodi="http://sodipodi.sourceforge.net/DTD/sodipodi-0.dtd"
   xmlns:inkscape="http://www.inkscape.org/namespaces/inkscape"
   width="100mm"
   height="100mm"
   viewBox="0 0 100 100"
   version="1.1"
   id="svg8"
   inkscape:version="0.92.3 (2405546, 2018-03-11)"
   sodipodi:docname="image_bmp.svg">
  <defs
     id="defs2">
    <inkscape:path-effect
       effect="bspline"
       id="path-effect4528"
       is_visible="true"
       weight="33.333333"
       steps="2"
       helper_size="0"
       apply_no_weight="true"
       apply_with_weight="true"
       only_selected="false" />
    <inkscape:path-effect
       effect="bspline"
       id="path-effect4520"
       is_visible="true"
       weight="33.333333"
       steps="2"
       helper_size="0"
       apply_no_weight="true"
       apply_with_weight="true"
       only_selected="false" />
  </defs>
  <sodipodi:namedview
     id="base"
     pagecolor="#ffffff"
     bordercolor="#666666"
     borderopacity="1.0"
     inkscape:pageopacity="0.0"
     inkscape:pageshadow="2"
     inkscape:zoom="1.4"
     inkscape:cx="-102.735"
     inkscape:cy="181.81031"
     inkscape:document-units="mm"
     inkscape:current-layer="flowRoot817"
     showgrid="false"
     inkscape:measure-start="376.063,484.512"
     inkscape:measure-end="77.4803,484.512"
     inkscape:window-width="1920"
     inkscape:window-height="1017"
     inkscape:window-x="-8"
     inkscape:window-y="-8"
     inkscape:window-maximized="1"
     showguides="false" />
  <metadata
     id="metadata5">
    <rdf:RDF>
      <cc:Work
         rdf:about="">
        <dc:format>image/svg+xml</dc:format>
        <dc:type
           rdf:resource="http://purl.org/dc/dcmitype/StillImage" />
        <dc:title></dc:title>
      </cc:Work>
    </rdf:RDF>
  </metadata>
  <g
     inkscape:label="Layer 1"
     inkscape:groupmode="layer"
     id="layer1"
     transform="translate(0,-197)">
    <path
       style="fill:none;fill-rule:evenodd;stroke:#000000;stroke-width:0;stroke-linecap:butt;stroke-linejoin:miter;stroke-miterlimit:4;stroke-dasharray:none;stroke-opacity:1"
       d="M 82.319012,62.337354 161.54831,83.566782"
       id="path4530"
       inkscape:connector-curvature="0" />
    <path
       style="fill:none;fill-rule:evenodd;stroke:#000000;stroke-width:1;stroke-linecap:butt;stroke-linejoin:miter;stroke-miterlimit:4;stroke-dasharray:none;stroke-opacity:1"
       d="m 25,284.5 v -75 H 62.5 L 75,222 v 62.5 z"
       id="path819"
       inkscape:connector-curvature="0"
       sodipodi:nodetypes="cccccc" />
    <path
       style="fill:none;fill-rule:evenodd;stroke:#000000;stroke-width:1;stroke-linecap:butt;stroke-linejoin:miter;stroke-miterlimit:4;stroke-dasharray:none;stroke-opacity:1"
       d="M 75,222 H 62.5 l -10e-7,-12.5"
       id="path821"
       inkscape:connector-curvature="0"
       sodipodi:nodetypes="ccc" />
    <g
       aria-label="GIF"
       transform="matrix(0.26458333,0,0,0.26458333,0,197)"
       style="font-style:normal;font-variant:normal;font-weight:normal;font-stretch:normal;font-size:64px;line-height:125%;font-family:sans-serif;-inkscape-font-specification:'sans-serif, Normal';text-align:center;letter-spacing:0px;word-spacing:0px;writing-mode:lr-tb;text-anchor:middle;fill:#000000;fill-opacity:1;stroke:none;stroke-width:1px;stroke-linecap:butt;stroke-linejoin:miter;stroke-opacity:1"
       id="flowRoot817">
      <g
         aria-label="BMP"
         style="font-style:normal;font-variant:normal;font-weight:normal;font-stretch:normal;font-size:64px;line-height:125%;font-family:sans-serif;-inkscape-font-specification:'sans-serif, Normal';text-align:center;letter-spacing:0px;word-spacing:0px;writing-mode:lr-tb;text-anchor:middle;fill:#000000;fill-opacity:1;stroke:none;stroke-width:1px;stroke-linecap:butt;stroke-linejoin:miter;stroke-opacity:1"
         id="flowRoot838">
        <path
           d="m 131.57617,225.86719 v 17.09375 h 10.125 q 5.09375,0 7.53125,-2.09375 2.46875,-2.125 2.46875,-6.46875 0,-4.375 -2.46875,-6.4375 -2.4375,-2.09375 -7.53125,-2.09375 z m 0,-19.1875 v 14.0625 h 9.34375 q 4.625,0 6.875,-1.71875 2.28125,-1.75 2.28125,-5.3125 0,-3.53125 -2.28125,-5.28125 -2.25,-1.75 -6.875,-1.75 z m -6.3125,-5.1875 h 16.125 q 7.21875,0 11.125,3 3.90625,3 3.90625,8.53125 0,4.28125 -2,6.8125 -2,2.53125 -5.875,3.15625 4.65625,1 7.21875,4.1875 2.59375,3.15625 2.59375,7.90625 0,6.25 -4.25,9.65625 -4.25,3.40625 -12.09375,3.40625 h -16.75 z"
           style="fill:#ff0000"
           id="path852" />
        <path
           d="m 169.13867,201.49219 h 9.40625 l 11.90625,31.75 11.96875,-31.75 h 9.40625 v 46.65625 h -6.15625 v -40.96875 l -12.03125,32 h -6.34375 l -12.03125,-32 v 40.96875 h -6.125 z"
           style="fill:#00ff00"
           id="path854" />
        <path
           d="m 230.70117,206.67969 v 17.53125 h 7.9375 q 4.40625,0 6.8125,-2.28125 2.40625,-2.28125 2.40625,-6.5 0,-4.1875 -2.40625,-6.46875 -2.40625,-2.28125 -6.8125,-2.28125 z m -6.3125,-5.1875 h 14.25 q 7.84375,0 11.84375,3.5625 4.03125,3.53125 4.03125,10.375 0,6.90625 -4.03125,10.4375 -4,3.53125 -11.84375,3.53125 h -7.9375 v 18.75 h -6.3125 z"
           style="fill:#0000ff"
           id="path856" />
      </g>
    </g>
  </g>
</svg>
