<?xml version="1.0" encoding="UTF-8" standalone="no"?>
<!-- Created with Inkscape (http://www.inkscape.org/) -->

<svg
   xmlns:dc="http://purl.org/dc/elements/1.1/"
   xmlns:cc="http://creativecommons.org/ns#"
   xmlns:rdf="http://www.w3.org/1999/02/22-rdf-syntax-ns#"
   xmlns:svg="http://www.w3.org/2000/svg"
   xmlns="http://www.w3.org/2000/svg"
   xmlns:sodipodi="http://sodipodi.sourceforge.net/DTD/sodipodi-0.dtd"
   xmlns:inkscape="http://www.inkscape.org/namespaces/inkscape"
   width="100mm"
   height="100mm"
   viewBox="0 0 100 100"
   version="1.1"
   id="svg8"
   inkscape:version="0.92.3 (2405546, 2018-03-11)"
   sodipodi:docname="image_png.svg">
  <defs
     id="defs2">
    <inkscape:path-effect
       effect="bspline"
       id="path-effect4528"
       is_visible="true"
       weight="33.333333"
       steps="2"
       helper_size="0"
       apply_no_weight="true"
       apply_with_weight="true"
       only_selected="false" />
    <inkscape:path-effect
       effect="bspline"
       id="path-effect4520"
       is_visible="true"
       weight="33.333333"
       steps="2"
       helper_size="0"
       apply_no_weight="true"
       apply_with_weight="true"
       only_selected="false" />
  </defs>
  <sodipodi:namedview
     id="base"
     pagecolor="#ffffff"
     bordercolor="#666666"
     borderopacity="1.0"
     inkscape:pageopacity="0.0"
     inkscape:pageshadow="2"
     inkscape:zoom="1.4"
     inkscape:cx="-192.30665"
     inkscape:cy="181.81031"
     inkscape:document-units="mm"
     inkscape:current-layer="flowRoot817"
     showgrid="false"
     inkscape:measure-start="376.063,484.512"
     inkscape:measure-end="77.4803,484.512"
     inkscape:window-width="1920"
     inkscape:window-height="1017"
     inkscape:window-x="-8"
     inkscape:window-y="-8"
     inkscape:window-maximized="1"
     showguides="false" />
  <metadata
     id="metadata5">
    <rdf:RDF>
      <cc:Work
         rdf:about="">
        <dc:format>image/svg+xml</dc:format>
        <dc:type
           rdf:resource="http://purl.org/dc/dcmitype/StillImage" />
        <dc:title />
      </cc:Work>
    </rdf:RDF>
  </metadata>
  <g
     inkscape:label="Layer 1"
     inkscape:groupmode="layer"
     id="layer1"
     transform="translate(0,-197)">
    <path
       style="fill:none;fill-rule:evenodd;stroke:#000000;stroke-width:0;stroke-linecap:butt;stroke-linejoin:miter;stroke-miterlimit:4;stroke-dasharray:none;stroke-opacity:1"
       d="M 82.319012,62.337354 161.54831,83.566782"
       id="path4530"
       inkscape:connector-curvature="0" />
    <path
       style="fill:none;fill-rule:evenodd;stroke:#000000;stroke-width:1;stroke-linecap:butt;stroke-linejoin:miter;stroke-miterlimit:4;stroke-dasharray:none;stroke-opacity:1"
       d="m 25,284.5 v -75 H 62.5 L 75,222 v 62.5 z"
       id="path819"
       inkscape:connector-curvature="0"
       sodipodi:nodetypes="cccccc" />
    <path
       style="fill:none;fill-rule:evenodd;stroke:#000000;stroke-width:1;stroke-linecap:butt;stroke-linejoin:miter;stroke-miterlimit:4;stroke-dasharray:none;stroke-opacity:1"
       d="M 75,222 H 62.5 l -10e-7,-12.5"
       id="path821"
       inkscape:connector-curvature="0"
       sodipodi:nodetypes="ccc" />
    <g
       aria-label="GIF"
       transform="matrix(0.26458333,0,0,0.26458333,0,197)"
       style="font-style:normal;font-variant:normal;font-weight:normal;font-stretch:normal;font-size:64px;line-height:125%;font-family:sans-serif;-inkscape-font-specification:'sans-serif, Normal';text-align:center;letter-spacing:0px;word-spacing:0px;writing-mode:lr-tb;text-anchor:middle;fill:#000000;fill-opacity:1;stroke:none;stroke-width:1px;stroke-linecap:butt;stroke-linejoin:miter;stroke-opacity:1"
       id="flowRoot817">
      <g
         aria-label="PNG"
         style="font-style:normal;font-variant:normal;font-weight:normal;font-stretch:normal;font-size:64px;line-height:125%;font-family:sans-serif;-inkscape-font-specification:'sans-serif, Normal';text-align:center;letter-spacing:0px;word-spacing:0px;writing-mode:lr-tb;text-anchor:middle;fill:#000000;fill-opacity:1;stroke:none;stroke-width:1px;stroke-linecap:butt;stroke-linejoin:miter;stroke-opacity:1"
         id="flowRoot838">
        <path
           d="m 132.38867,206.67969 v 17.53125 h 7.9375 q 4.40625,0 6.8125,-2.28125 2.40625,-2.28125 2.40625,-6.5 0,-4.1875 -2.40625,-6.46875 -2.40625,-2.28125 -6.8125,-2.28125 z m -6.3125,-5.1875 h 14.25 q 7.84375,0 11.84375,3.5625 4.03125,3.53125 4.03125,10.375 0,6.90625 -4.03125,10.4375 -4,3.53125 -11.84375,3.53125 h -7.9375 v 18.75 h -6.3125 z"
           style="fill:#ff0000"
           id="path1423" />
        <path
           d="m 164.70117,201.49219 h 8.5 l 20.6875,39.03125 v -39.03125 h 6.125 v 46.65625 h -8.5 l -20.6875,-39.03125 v 39.03125 h -6.125 z"
           style="fill:#00ff00"
           id="path1425" />
        <path
           d="m 244.38867,241.49219 v -12.53125 h -10.3125 v -5.1875 h 16.5625 v 20.03125 q -3.65625,2.59375 -8.0625,3.9375 -4.40625,1.3125 -9.40625,1.3125 -10.9375,0 -17.125,-6.375 -6.15625,-6.40625 -6.15625,-17.8125 0,-11.4375 6.15625,-17.8125 6.1875,-6.40625 17.125,-6.40625 4.5625,0 8.65625,1.125 4.125,1.125 7.59375,3.3125 v 6.71875 q -3.5,-2.96875 -7.4375,-4.46875 -3.9375,-1.5 -8.28125,-1.5 -8.5625,0 -12.875,4.78125 -4.28125,4.78125 -4.28125,14.25 0,9.4375 4.28125,14.21875 4.3125,4.78125 12.875,4.78125 3.34375,0 5.96875,-0.5625 2.625,-0.59375 4.71875,-1.8125 z"
           style="fill:#0000ff"
           id="path1427" />
      </g>
    </g>
  </g>
</svg>
